<svg width="63" height="77" viewBox="0 0 63 77" fill="none" xmlns="http://www.w3.org/2000/svg">
<path d="M31.4466 6.66211C31.4466 6.66211 27.3537 33.3512 31.4466 36.9816C35.5394 33.3512 31.4466 6.66211 31.4466 6.66211ZM39.549 59.4475C37.3451 58.4514 34.9468 58.1633 33.3356 58.0974C32.2151 58.0563 31.4466 58.1139 31.4466 58.1139C31.4466 58.1139 30.6872 58.0563 29.5575 58.0974C27.9463 58.1633 25.548 58.4514 23.3442 59.4475C23.3256 59.4557 23.3164 59.464 23.2979 59.4722C23.3164 59.5216 24.5572 62.9792 31.4466 62.9792C38.3267 62.9792 39.5767 59.5134 39.5953 59.4722C39.5767 59.464 39.5675 59.4557 39.549 59.4475Z" fill="#A2CDF5"/>
<path d="M31.4466 0.414062C14.1121 0.414062 0 13.5693 0 29.7375C0 34.471 0.537075 39.6244 0.99081 43.0573C1.14823 44.679 1.37972 46.2514 1.66678 47.6674L1.8705 48.9434L1.94458 48.9681C5.67631 65.0292 17.6679 76.1511 31.4466 76.1511C45.5494 76.1511 57.7817 64.5024 61.2171 47.7415C61.5227 46.2514 61.7542 44.6708 61.9024 43.1067C62.3561 39.6244 62.8932 34.471 62.8932 29.7292C62.8932 13.5693 48.7811 0.414062 31.4466 0.414062ZM5.97263 21.3982C7.93573 24.7569 11.9175 30.2479 16.9178 30.2479C24.1313 30.2479 22.6127 36.1175 16.2696 33.6396C10.6859 31.458 9.60251 27.0784 4.75033 25.7201C4.98182 23.8267 5.32444 23.1434 5.97263 21.3982ZM23.2979 38.7353C23.2979 38.7353 14.4976 43.1067 11.3706 37.1928C11.3706 37.2011 22.6867 32.8339 23.2979 38.7353ZM41.6232 69.5488C38.4749 71.2529 35.0302 72.1996 31.4466 72.1996C27.863 72.1996 24.4183 71.2529 21.27 69.5488C18.5753 63.7944 20.4551 60.9049 23.3071 59.4725C23.3257 59.4642 23.3349 59.456 23.3534 59.4478C25.5573 58.4517 27.9556 58.1635 29.5668 58.0977C30.6873 58.0565 31.4559 58.1141 31.4559 58.1141C31.4559 58.1141 32.2152 58.0565 33.3449 58.0977C34.9561 58.1635 37.3544 58.4517 39.5583 59.4478C39.5768 59.456 39.586 59.4642 39.6046 59.4725C42.4381 60.9049 44.3178 63.7862 41.6232 69.5488ZM57.4761 42.7198C57.3372 44.218 57.115 45.6752 56.8372 47.0417L56.828 47.0993C55.5779 53.1995 53.0592 58.5175 49.7071 62.6831C50.2164 56.2783 44.2345 55.0023 42.7992 50.4169C41.3269 45.6916 37.2896 44.2674 36.521 45.0577C35.7524 45.8563 39.6601 49.4455 38.5675 51.6683C37.4748 53.891 36.058 52.5409 35.2987 51.2731C34.2709 49.5608 33.5023 53.043 31.4466 53.043C29.3909 53.043 28.6223 49.569 27.5945 51.2731C26.8352 52.5409 25.4184 53.891 24.3257 51.6683C23.2331 49.4455 27.15 45.8563 26.3722 45.0577C25.6036 44.2592 21.5663 45.6834 20.094 50.4169C18.6679 54.9941 12.6861 56.2783 13.1861 62.6748C9.82475 58.501 7.30606 53.1665 6.04671 47.0417C5.76891 45.6669 5.55594 44.218 5.40778 42.6621C5.18554 40.9334 4.93552 38.7765 4.75033 36.4715C7.12086 40.3077 11.6489 44.3498 20.1866 44.3498C25.2795 44.3498 25.3814 39.9949 25.3814 35.7223C25.3814 31.4498 25.6684 25.7201 22.6867 25.7201C19.7051 25.7201 19.7051 29.2271 16.7234 27.5147C13.9639 25.9341 12.1027 23.5879 11.7693 12.4167C16.6956 7.47736 23.6868 4.36556 31.4373 4.36556C39.1879 4.36556 46.1791 7.47736 51.1054 12.4167C50.772 23.5879 48.9108 25.9341 46.1513 27.5147C43.1696 29.2271 43.1696 25.7201 40.1879 25.7201C37.2062 25.7201 37.4933 31.4498 37.4933 35.7223C37.4933 39.9949 37.5859 44.3498 42.6881 44.3498C51.235 44.3498 55.7538 40.3077 58.1243 36.4715C57.9484 38.7847 57.7076 40.9581 57.4761 42.7198ZM51.1054 36.9204C48.67 43.3827 39.5953 38.7353 39.5953 38.7353C40.1879 32.8339 51.1054 36.9204 51.1054 36.9204ZM46.8551 33.6396C40.512 36.1175 38.7526 30.2479 45.9661 30.2479C50.9757 30.2479 54.9482 24.7569 56.9113 21.3982C57.5595 23.1434 58.1429 23.8267 58.3744 25.7201C53.5314 27.0867 52.448 31.458 46.8551 33.6396Z" fill="#187EDE"/>
</svg>
